# xmcd CD database file
#
# Track frame offsets:
#	183
#	17673
#	34135
#
# Disc length: 669 seconds
#
# Revision: 0
# Processed by: cddbd v1.4PL0 Copyright (c) Steve Scherf et al.
# Submitted via: CDex 1.50
#
DISCID=1a029b03
DTITLE=Bellamy Brothers - Fly Me To Eden (MCD)
DYEAR=1991
DGENRE=Country
TTITLE0=Fly Me To Eden
TTITLE1=Crossfire
TTITLE2=Crazy From The Heart
EXTD=YEAR: 1991
EXTT0=
EXTT1=
EXTT2=
PLAYORDER=
